<mxfile host="app.diagrams.net" modified="2024-07-06T21:45:21.150Z" agent="Mozilla/5.0 (X11; Linux x86_64) AppleWebKit/537.36 (KHTML, like Gecko) Chrome/126.0.0.0 Safari/537.36" etag="u11hysqbD6C9verv8I22" version="24.6.4" type="device">
  <diagram name="PÃ¡gina-1" id="Q5-3FUpoVTMX-9OEE_T7">
    <mxGraphModel dx="1231" dy="746" grid="1" gridSize="10" guides="1" tooltips="1" connect="1" arrows="1" fold="1" page="1" pageScale="1" pageWidth="827" pageHeight="1169" math="0" shadow="0">
      <root>
        <mxCell id="0" />
        <mxCell id="1" parent="0" />
        <mxCell id="LQI4h75fzvWdCjlMtyyY-33" value="" style="rounded=1;whiteSpace=wrap;html=1;" parent="1" vertex="1">
          <mxGeometry x="120" y="160" width="640" height="480" as="geometry" />
        </mxCell>
        <mxCell id="LQI4h75fzvWdCjlMtyyY-2" value="Process Manager" style="rounded=1;whiteSpace=wrap;html=1;fillColor=#f5f5f5;fontColor=#333333;strokeColor=#666666;verticalAlign=bottom;" parent="1" vertex="1">
          <mxGeometry x="160" y="200" width="160" height="190" as="geometry" />
        </mxCell>
        <mxCell id="LQI4h75fzvWdCjlMtyyY-3" value="Admission Control" style="rounded=0;whiteSpace=wrap;html=1;" parent="1" vertex="1">
          <mxGeometry x="180" y="210" width="120" height="30" as="geometry" />
        </mxCell>
        <mxCell id="LQI4h75fzvWdCjlMtyyY-4" value="Scheduler" style="rounded=0;whiteSpace=wrap;html=1;" parent="1" vertex="1">
          <mxGeometry x="180" y="250" width="120" height="30" as="geometry" />
        </mxCell>
        <mxCell id="LQI4h75fzvWdCjlMtyyY-5" value="Query Processor" style="rounded=1;whiteSpace=wrap;html=1;fillColor=#f5f5f5;fontColor=#333333;strokeColor=#666666;verticalAlign=bottom;" parent="1" vertex="1">
          <mxGeometry x="360" y="200" width="160" height="190" as="geometry" />
        </mxCell>
        <mxCell id="LQI4h75fzvWdCjlMtyyY-6" value="Parser" style="rounded=0;whiteSpace=wrap;html=1;" parent="1" vertex="1">
          <mxGeometry x="380" y="210" width="120" height="30" as="geometry" />
        </mxCell>
        <mxCell id="LQI4h75fzvWdCjlMtyyY-7" value="Query Rewrite" style="rounded=0;whiteSpace=wrap;html=1;" parent="1" vertex="1">
          <mxGeometry x="380" y="250" width="120" height="30" as="geometry" />
        </mxCell>
        <mxCell id="LQI4h75fzvWdCjlMtyyY-8" value="Optimizer" style="rounded=0;whiteSpace=wrap;html=1;" parent="1" vertex="1">
          <mxGeometry x="380" y="290" width="120" height="30" as="geometry" />
        </mxCell>
        <mxCell id="LQI4h75fzvWdCjlMtyyY-9" value="Executor" style="rounded=0;whiteSpace=wrap;html=1;" parent="1" vertex="1">
          <mxGeometry x="380" y="330" width="120" height="30" as="geometry" />
        </mxCell>
        <mxCell id="LQI4h75fzvWdCjlMtyyY-10" value="Transaction Manager" style="rounded=1;whiteSpace=wrap;html=1;fillColor=#f5f5f5;fontColor=#333333;strokeColor=#666666;verticalAlign=bottom;" parent="1" vertex="1">
          <mxGeometry x="160" y="420" width="160" height="190" as="geometry" />
        </mxCell>
        <mxCell id="LQI4h75fzvWdCjlMtyyY-11" value="Transaction Manager" style="rounded=0;whiteSpace=wrap;html=1;" parent="1" vertex="1">
          <mxGeometry x="180" y="430" width="120" height="30" as="geometry" />
        </mxCell>
        <mxCell id="LQI4h75fzvWdCjlMtyyY-12" value="Log Manager" style="rounded=0;whiteSpace=wrap;html=1;" parent="1" vertex="1">
          <mxGeometry x="180" y="470" width="120" height="30" as="geometry" />
        </mxCell>
        <mxCell id="LQI4h75fzvWdCjlMtyyY-13" value="Storage Manager" style="rounded=1;whiteSpace=wrap;html=1;fillColor=#f5f5f5;fontColor=#333333;strokeColor=#666666;verticalAlign=bottom;" parent="1" vertex="1">
          <mxGeometry x="360" y="420" width="160" height="190" as="geometry" />
        </mxCell>
        <mxCell id="LQI4h75fzvWdCjlMtyyY-14" value="Access Methods" style="rounded=0;whiteSpace=wrap;html=1;" parent="1" vertex="1">
          <mxGeometry x="380" y="430" width="120" height="30" as="geometry" />
        </mxCell>
        <mxCell id="LQI4h75fzvWdCjlMtyyY-15" value="Buffer Manager" style="rounded=0;whiteSpace=wrap;html=1;" parent="1" vertex="1">
          <mxGeometry x="380" y="470" width="120" height="30" as="geometry" />
        </mxCell>
        <mxCell id="LQI4h75fzvWdCjlMtyyY-16" value="Disk Manager" style="rounded=0;whiteSpace=wrap;html=1;" parent="1" vertex="1">
          <mxGeometry x="380" y="510" width="120" height="30" as="geometry" />
        </mxCell>
        <mxCell id="LQI4h75fzvWdCjlMtyyY-26" value="Recovery Manager" style="rounded=0;whiteSpace=wrap;html=1;" parent="1" vertex="1">
          <mxGeometry x="180" y="510" width="120" height="30" as="geometry" />
        </mxCell>
        <mxCell id="LQI4h75fzvWdCjlMtyyY-27" value="Shared Utilities" style="rounded=1;whiteSpace=wrap;html=1;fillColor=#f5f5f5;fontColor=#333333;strokeColor=#666666;verticalAlign=bottom;" parent="1" vertex="1">
          <mxGeometry x="560" y="200" width="160" height="410" as="geometry" />
        </mxCell>
        <mxCell id="LQI4h75fzvWdCjlMtyyY-28" value="Catalog Manager" style="rounded=0;whiteSpace=wrap;html=1;" parent="1" vertex="1">
          <mxGeometry x="580" y="210" width="120" height="30" as="geometry" />
        </mxCell>
        <mxCell id="LQI4h75fzvWdCjlMtyyY-29" value="Memory Manager" style="rounded=0;whiteSpace=wrap;html=1;" parent="1" vertex="1">
          <mxGeometry x="580" y="250" width="120" height="30" as="geometry" />
        </mxCell>
        <mxCell id="LQI4h75fzvWdCjlMtyyY-30" value="Administration" style="rounded=0;whiteSpace=wrap;html=1;" parent="1" vertex="1">
          <mxGeometry x="580" y="290" width="120" height="30" as="geometry" />
        </mxCell>
        <mxCell id="LQI4h75fzvWdCjlMtyyY-31" value="Replication Services" style="rounded=0;whiteSpace=wrap;html=1;" parent="1" vertex="1">
          <mxGeometry x="580" y="330" width="120" height="30" as="geometry" />
        </mxCell>
        <mxCell id="LQI4h75fzvWdCjlMtyyY-32" value="Batch Utilities" style="rounded=0;whiteSpace=wrap;html=1;" parent="1" vertex="1">
          <mxGeometry x="580" y="370" width="120" height="30" as="geometry" />
        </mxCell>
        <mxCell id="LQI4h75fzvWdCjlMtyyY-34" value="Database" style="shape=cylinder3;whiteSpace=wrap;html=1;boundedLbl=1;backgroundOutline=1;size=15;" parent="1" vertex="1">
          <mxGeometry x="380" y="700" width="120" height="60" as="geometry" />
        </mxCell>
        <mxCell id="LQI4h75fzvWdCjlMtyyY-35" value="" style="shape=flexArrow;endArrow=classic;startArrow=classic;html=1;rounded=0;fillColor=#dae8fc;strokeColor=#6c8ebf;" parent="1" edge="1">
          <mxGeometry width="100" height="100" relative="1" as="geometry">
            <mxPoint x="439.58000000000004" y="700" as="sourcePoint" />
            <mxPoint x="439.58000000000004" y="610" as="targetPoint" />
          </mxGeometry>
        </mxCell>
        <mxCell id="LQI4h75fzvWdCjlMtyyY-36" value="Database Management System (DBMS)" style="text;html=1;align=center;verticalAlign=middle;whiteSpace=wrap;rounded=0;fontSize=22;" parent="1" vertex="1">
          <mxGeometry x="235" y="130" width="410" height="30" as="geometry" />
        </mxCell>
      </root>
    </mxGraphModel>
  </diagram>
</mxfile>
